<svg xmlns="http://www.w3.org/2000/svg" width="420" height="175" viewBox="0 0 420 175">
<rect x="6.25" y="6.25" width="407.5" height="162.5" rx="16" fill="#002028" stroke="#29A1FA" stroke-width="2.5"/>
<rect x="14" y="14" width="392" height="147" rx="9" fill="none" stroke="#003542" stroke-width="1.2"/>
<svg x="24" y="22" width="56" height="56" viewBox="0 0 48 48">
  <defs>
    <linearGradient id="k-bigday-bg" x1="0" y1="0" x2="0" y2="1">
      <stop offset="0" stop-color="#0a2540"/>
      <stop offset="0.6" stop-color="#0e5a8a"/>
      <stop offset="1" stop-color="#14b8a6"/>
    </linearGradient>
  </defs>
  <rect x="2" y="2" width="44" height="44" rx="11" fill="url(#k-bigday-bg)"/>
  <!-- rising sun -->
  <circle cx="24" cy="27" r="7.5" fill="#ffd166"/>
  <!-- horizon waves -->
  <path d="M7 31.5c5.5-3.2 11.5-3.2 17 0s11.5 3.2 17 0" fill="none" stroke="#ffffff" stroke-width="3.2" stroke-linecap="round"/>
  <path d="M11 37.5c4.3-2.4 9-2.4 13 0s8.7 2.4 13 0" fill="none" stroke="#ffffff" stroke-width="2.6" stroke-linecap="round" opacity="0.75"/>
  <!-- sparkle: the day to look forward to -->
  <path d="M34.5 9l1.5 3.4 3.4 1.5-3.4 1.5-1.5 3.4-1.5-3.4-3.4-1.5 3.4-1.5z" fill="#ffffff"/>
</svg>
<text x="94" y="48" font-family="'Segoe UI', system-ui, -apple-system, 'Helvetica Neue', Roboto, Arial, sans-serif" font-size="24" fill="#65D5EF" font-weight="700">bigday</text>
<rect x="94" y="58" width="159.7" height="30" rx="15" fill="none" stroke="#29A1FA" stroke-width="1.8"/>
<text x="106" y="80" font-family="'Segoe UI', system-ui, -apple-system, 'Helvetica Neue', Roboto, Arial, sans-serif" font-size="21" fill="#8ECAFF">im Browser</text>
<text x="24" y="122" font-family="'Segoe UI', system-ui, -apple-system, 'Helvetica Neue', Roboto, Arial, sans-serif" font-size="21" fill="#00ACCA">Hübscher Countdown bis Urlaub,</text>
<text x="24" y="149" font-family="'Segoe UI', system-ui, -apple-system, 'Helvetica Neue', Roboto, Arial, sans-serif" font-size="21" fill="#00ACCA">Geburtstag &amp; Co.</text>
</svg>
